<svg width="150" height="150" viewBox="0 0 150 150" fill="none" xmlns="http://www.w3.org/2000/svg">
<rect width="150" height="150" fill="white"/>
<path d="M97.0312 61.9062L94.2656 63.7344C92.5781 61.2344 90.375 59.2656 87.6562 57.8281C84.9688 56.3594 82.0469 55.625 78.8906 55.625C73.7656 55.625 69.3906 57.4375 65.7656 61.0625C62.1406 64.6875 60.3281 69.0625 60.3281 74.1875C60.3281 79.3125 62.1406 83.6875 65.7656 87.3125C69.3906 90.9375 73.7656 92.75 78.8906 92.75C82.0469 92.75 84.9688 92.0156 87.6562 90.5469C90.375 89.0781 92.5781 87.0938 94.2656 84.5938L96.9844 86.5625C94.9844 89.5 92.3906 91.8281 89.2031 93.5469C86.0156 95.2656 82.5781 96.125 78.8906 96.125C75.9219 96.125 73.0781 95.5469 70.3594 94.3906C67.6719 93.2344 65.3438 91.6719 63.375 89.7031C61.4062 87.7344 59.8438 85.4062 58.6875 82.7188C57.5312 80 56.9531 77.1562 56.9531 74.1875C56.9531 71.2188 57.5312 68.3906 58.6875 65.7031C59.8438 62.9844 61.4062 60.6406 63.375 58.6719C65.3438 56.7031 67.6719 55.1406 70.3594 53.9844C73.0781 52.8281 75.9219 52.25 78.8906 52.25C82.6094 52.25 86.0625 53.125 89.25 54.875C92.4375 56.5938 95.0312 58.9375 97.0312 61.9062ZM102.609 58.0625L99.7969 59.8906C97.4844 56.5156 94.4844 53.8438 90.7969 51.875C87.1406 49.875 83.1719 48.875 78.8906 48.875C74.2969 48.875 70.0625 50.0156 66.1875 52.2969C62.3125 54.5469 59.2344 57.6094 56.9531 61.4844C54.7031 65.3594 53.5781 69.5938 53.5781 74.1875C53.5781 78.7812 54.7031 83.0156 56.9531 86.8906C59.2344 90.7656 62.3125 93.8438 66.1875 96.125C70.0625 98.375 74.2969 99.5 78.8906 99.5C83.1719 99.5 87.1562 98.5 90.8438 96.5C94.5312 94.5 97.5312 91.7969 99.8438 88.3906L102.609 90.3125C99.9844 94.1875 96.5781 97.25 92.3906 99.5C88.2344 101.75 83.7344 102.875 78.8906 102.875C73.7031 102.875 68.9062 101.594 64.5 99.0312C60.0938 96.4688 56.6094 92.9844 54.0469 88.5781C51.4844 84.1719 50.2031 79.375 50.2031 74.1875C50.2031 69 51.4844 64.2031 54.0469 59.7969C56.6094 55.3906 60.0938 51.9062 64.5 49.3438C68.9062 46.7812 73.7031 45.5 78.8906 45.5C83.7344 45.5 88.2344 46.625 92.3906 48.875C96.5781 51.125 99.9844 54.1875 102.609 58.0625ZM108.234 54.3125L105.422 56.1406C102.484 51.8281 98.6719 48.4219 93.9844 45.9219C89.3281 43.3906 84.2969 42.125 78.8906 42.125C74.5469 42.125 70.3906 42.9688 66.4219 44.6562C62.4531 46.3438 59.0312 48.625 56.1562 51.5C53.3125 54.3438 51.0469 57.75 49.3594 61.7188C47.6719 65.6875 46.8281 69.8438 46.8281 74.1875C46.8281 78.5312 47.6719 82.6875 49.3594 86.6562C51.0469 90.625 53.3125 94.0469 56.1562 96.9219C59.0312 99.7656 62.4531 102.031 66.4219 103.719C70.3906 105.406 74.5469 106.25 78.8906 106.25C84.3281 106.25 89.375 104.984 94.0312 102.453C98.6875 99.9219 102.484 96.5 105.422 92.1875L108.141 94.2031C104.891 98.9531 100.688 102.719 95.5312 105.5C90.4062 108.25 84.8594 109.625 78.8906 109.625C72.4844 109.625 66.5625 108.047 61.125 104.891C55.6875 101.703 51.375 97.3906 48.1875 91.9531C45.0312 86.5156 43.4531 80.5938 43.4531 74.1875C43.4531 67.7812 45.0312 61.8594 48.1875 56.4219C51.375 50.9844 55.6875 46.6875 61.125 43.5312C66.5625 40.3438 72.4844 38.75 78.8906 38.75C84.8906 38.75 90.4688 40.1562 95.625 42.9688C100.781 45.75 104.984 49.5312 108.234 54.3125ZM113.766 50.4688L110.953 52.2969C107.391 47.0781 102.781 42.9531 97.125 39.9219C91.5 36.8906 85.4219 35.375 78.8906 35.375C73.6406 35.375 68.6094 36.4062 63.7969 38.4688C59.0156 40.5 54.8906 43.25 51.4219 46.7188C47.9531 50.1875 45.1875 54.3281 43.125 59.1406C41.0938 63.9219 40.0781 68.9375 40.0781 74.1875C40.0781 79.4375 41.0938 84.4688 43.125 89.2812C45.1875 94.0625 47.9531 98.1875 51.4219 101.656C54.8906 105.125 59.0156 107.891 63.7969 109.953C68.6094 111.984 73.6406 113 78.8906 113C85.4219 113 91.5156 111.469 97.1719 108.406C102.828 105.344 107.438 101.203 111 95.9844L113.719 98.0469C109.844 103.672 104.844 108.141 98.7188 111.453C92.5938 114.734 85.9844 116.375 78.8906 116.375C73.1719 116.375 67.7031 115.25 62.4844 113C57.2969 110.781 52.8125 107.797 49.0312 104.047C45.2812 100.266 42.2812 95.7812 40.0312 90.5938C37.8125 85.375 36.7031 79.9062 36.7031 74.1875C36.7031 68.4688 37.8125 63.0156 40.0312 57.8281C42.2812 52.6094 45.2812 48.125 49.0312 44.375C52.8125 40.5938 57.2969 37.5938 62.4844 35.375C67.7031 33.125 73.1719 32 78.8906 32C86.0156 32 92.6406 33.6562 98.7656 36.9688C104.891 40.2812 109.891 44.7812 113.766 50.4688Z" fill="url(#paint0_linear_849:499)"/>
<defs>
<linearGradient id="paint0_linear_849:499" x1="47.8513" y1="26.5" x2="70.2051" y2="125.582" gradientUnits="userSpaceOnUse">
<stop stop-color="#1F00DE"/>
<stop offset="0.800658" stop-color="#B268CC"/>
</linearGradient>
</defs>
</svg>
